PathFileType	4	(X/Y/Z)	D:\TRACE\v60_Jaco2_6-2-23\BothDRS_Motion1_6-platform.trc
DataRate	CameraRate	NumFrames	NumMarkers	Units	OrigDataRate	OrigDataStartFrame	OrigNumFrames
100.00	100.00	      60	5	mm	100.00	2813	      7500
Frame#	Time	Left_Front			Right_Front			Left_Aft			Right_Aft			Post			
		X1	Y1	Z1	X2	Y2	Z2	X3	Y3	Z3	X4	Y4	Z4	X5	Y5	Z5	

2813	28.120	-752.28082	23.56789	-635.58533	817.80389	25.02285	-640.77570	-659.89539	-3.05990	499.24139	782.04901	-3.38795	508.86359	33.78712	1329.39990	-929.82141	
2814	28.130	-752.10535	24.08246	-635.66083	818.28699	25.64143	-640.61951	-659.67535	-3.29014	499.23279	782.42029	-3.97424	508.95410	34.21045	1329.75354	-928.57037	
2815	28.140	-751.69733	24.29235	-635.54492	818.60657	26.01146	-640.47839	-659.39447	-3.62288	499.19739	782.53955	-4.28417	509.10956	34.51347	1330.49939	-927.85217	
2816	28.150	-751.46179	24.58086	-635.40387	818.83807	26.26988	-640.42834	-659.19269	-3.98368	499.35846	782.64240	-4.41861	508.57822	34.77981	1331.23486	-926.92804	
2817	28.160	-751.25281	25.00019	-635.24622	818.96783	26.54589	-640.43701	-658.91345	-4.34503	499.48392	782.85724	-4.74138	508.67496	35.01705	1331.70801	-925.96045	
2818	28.170	-750.99615	25.50171	-635.09772	819.02570	26.92022	-640.26422	-658.67548	-4.67046	499.51477	782.92798	-5.27041	508.78461	35.45368	1332.21167	-925.42944	
2819	28.180	-750.90631	25.80035	-634.84039	819.13568	27.44597	-640.04071	-658.58752	-4.90877	499.67160	783.49670	-5.40804	509.41766	35.04540	1333.02148	-924.89026	
2820	28.190	-750.83539	26.05494	-634.77521	819.26196	27.87809	-639.89703	-658.38910	-5.30571	499.83276	783.11139	-5.75103	509.55353	35.13957	1333.47375	-923.77240	
2821	28.200	-750.62836	26.39405	-634.76465	819.40942	28.20088	-639.80743	-658.16797	-5.80937	499.97394	783.09796	-5.89515	509.73364	35.44958	1333.88928	-923.01501	
2822	28.210	-750.51532	26.74054	-634.72845	819.49866	28.54478	-639.79797	-658.08252	-6.01516	500.00409	783.41040	-6.15855	509.86807	35.70120	1334.51282	-921.98334	
2823	28.220	-750.36993	27.27640	-634.59119	819.51733	28.91981	-639.80377	-657.82922	-6.43165	500.19525	783.66284	-6.46886	509.95328	35.64225	1334.98059	-921.27759	
2824	28.230	-750.38330	27.93921	-634.47235	819.54498	29.23103	-639.69604	-658.56097	-5.63933	500.05624	783.80200	-6.77562	509.91626	35.85406	1335.62769	-920.29742	
2825	28.240	-750.49640	28.34269	-634.40204	819.47302	29.57639	-639.67084	-658.50031	-5.87881	500.24121	783.68463	-7.03709	509.96619	35.54369	1336.12964	-919.24420	
2826	28.250	-750.39850	28.59555	-634.34497	819.59906	30.02561	-639.43164	-658.58044	-6.07635	500.26532	783.62122	-7.27973	510.02707	35.41010	1336.65735	-918.68323	
2827	28.260	-750.41370	28.82506	-634.22845	819.68774	30.35204	-639.22321	-659.22546	-5.63116	500.49579	783.76630	-7.46836	510.07947	35.35799	1336.98047	-917.94489	
2828	28.270	-750.40967	29.02064	-634.18762	819.71765	30.65215	-639.12262	-659.26489	-5.79466	500.62015	783.88763	-7.60447	510.11765	35.85459	1337.50952	-916.84674	
2829	28.280	-750.42102	29.32738	-634.02423	819.79468	31.05215	-639.09241	-659.13544	-6.18455	500.72958	783.87433	-7.88221	510.17157	35.93941	1337.98572	-916.48224	
2830	28.290	-750.41107	29.62650	-633.77869	819.66803	31.38553	-639.01837	-659.06000	-6.56354	500.76984	783.74707	-8.21297	510.20300	35.98308	1338.40527	-916.14386	
2831	28.300	-750.57245	29.89682	-633.65417	819.58252	31.63239	-638.95178	-659.00909	-6.79306	500.70508	783.51544	-8.60767	510.21930	35.89338	1338.92639	-915.24286	
2832	28.310	-750.60980	30.18845	-633.47638	819.48621	31.97738	-638.82550	-658.89172	-7.27454	500.68793	783.55090	-8.71910	510.24344	35.66534	1339.35632	-914.67151	
2833	28.320	-750.57214	30.69694	-633.57538	819.49310	32.28265	-638.67725	-658.91528	-7.58756	500.71677	783.64099	-8.96407	510.32123	35.87646	1340.05945	-913.96228	
2834	28.330	-750.69128	31.09138	-633.50763	819.43805	32.59565	-638.52057	-659.03235	-7.86012	500.76160	783.62335	-9.15135	510.39346	35.82669	1340.43872	-913.21521	
2835	28.340	-750.91559	31.53870	-633.52332	819.21130	33.11917	-638.57098	-659.15717	-8.11747	500.77121	783.45612	-9.39502	510.40945	35.75245	1340.82434	-912.22675	
2836	28.350	-751.07043	31.71978	-633.58594	818.91064	33.55922	-638.46045	-659.22150	-8.60984	500.97855	782.97986	-9.75588	510.48846	34.84403	1341.20911	-911.51453	
2837	28.360	-751.36792	32.10625	-633.40033	818.60449	33.85988	-638.43115	-659.42371	-8.72218	501.02124	782.07904	-10.37171	510.88745	34.19704	1341.47375	-910.68756	
2838	28.370	-751.50159	32.45604	-633.44348	818.63788	34.04537	-638.32123	-659.69708	-8.95779	501.11560	782.12726	-10.26895	511.14859	34.49600	1341.86023	-909.58704	
2839	28.380	-751.71014	32.79548	-633.40106	818.13885	34.23101	-638.35632	-659.97620	-9.06905	501.24945	782.05469	-10.23685	511.00012	34.28596	1342.26660	-908.69617	
2840	28.390	-751.92279	32.95039	-633.36414	817.99152	34.40493	-638.27020	-660.21161	-9.19816	501.31232	781.69574	-10.36543	510.98993	34.07937	1342.47131	-908.32819	
2841	28.400	-752.30542	32.97213	-633.16797	817.76660	34.37194	-638.18951	-660.39185	-9.39483	501.43103	781.33508	-10.75980	510.91537	33.96743	1342.80493	-908.12317	
2842	28.410	-752.77637	33.19097	-633.06177	817.52881	34.43501	-637.96429	-660.77698	-9.59036	501.46890	781.00739	-10.92126	510.93127	33.67950	1343.13525	-907.92834	
2843	28.420	-753.15710	33.23064	-632.96320	817.08209	34.61061	-637.99072	-661.13519	-9.91903	501.44357	780.82855	-11.07715	510.99057	33.31514	1343.44226	-908.07684	
2844	28.430	-753.34161	33.54251	-632.87592	816.65741	35.08375	-637.83795	-661.53033	-10.14498	501.44171	780.57343	-11.26639	511.05774	32.90909	1343.91748	-907.99017	
2845	28.440	-753.66791	34.03920	-632.72046	816.30792	35.21452	-637.72473	-661.70294	-10.34758	501.51114	780.14026	-11.65763	511.05927	32.31619	1344.63086	-907.52625	
2846	28.450	-754.11810	34.47258	-632.56158	815.84717	35.50232	-637.69574	-661.76276	-10.73687	501.76895	779.77222	-11.73333	511.26404	32.62792	1345.00818	-907.10730	
2847	28.460	-754.47247	34.53625	-632.56683	815.57196	35.75710	-637.65765	-662.51947	-10.50912	501.69754	779.73022	-11.59676	511.38358	31.68684	1345.43372	-906.29694	
2848	28.470	-754.84357	34.47728	-632.58081	815.07733	35.93698	-637.61609	-663.08777	-10.63931	501.67502	778.57660	-12.35365	511.22458	31.23663	1345.48132	-905.58954	
2849	28.480	-755.33923	34.85444	-632.69714	814.85455	35.96154	-637.51215	-663.44604	-10.78762	501.79611	778.16986	-12.53709	511.08383	31.01811	1345.49963	-904.10175	
2850	28.490	-755.81915	35.03318	-632.43396	814.27502	36.11880	-637.58264	-663.70917	-10.96515	501.89679	777.82703	-12.66114	511.17859	30.70833	1345.70483	-903.17523	
2851	28.500	-756.41876	35.10471	-632.33032	813.66937	36.47187	-637.55609	-663.92072	-11.34191	502.05502	777.29987	-12.78904	511.20355	29.82099	1345.91760	-902.12402	
2852	28.510	-756.76093	35.37333	-632.14038	813.19641	36.57280	-637.45703	-664.77063	-10.91092	501.93423	776.81366	-12.98562	511.08960	29.40036	1346.13367	-901.68207	
2853	28.520	-757.10791	35.40816	-632.05872	812.78906	36.75582	-637.35699	-665.14111	-10.87999	501.87671	775.99011	-13.00610	511.24377	28.84290	1346.24072	-901.73315	
2854	28.530	-757.65863	35.58472	-632.23865	812.40521	36.87077	-637.26099	-665.69000	-11.16751	501.93082	775.68585	-13.18300	511.19409	28.55034	1346.45117	-902.13678	
2855	28.540	-758.12787	35.84681	-632.40314	811.78015	36.90455	-637.27277	-666.42267	-11.33749	501.93802	775.39301	-13.17560	511.23120	28.37696	1346.67810	-902.48590	
2856	28.550	-758.63892	36.00975	-632.19214	811.23010	37.11534	-637.30176	-666.88080	-11.49417	501.98877	775.01007	-13.16982	511.48514	28.15216	1346.96094	-902.68866	
2857	28.560	-759.40198	36.17340	-632.04224	810.88379	37.41814	-637.15948	-667.33063	-11.47104	502.07660	774.46405	-13.25021	511.61823	27.22777	1347.41040	-903.11487	
2858	28.570	-760.02356	36.56788	-631.80518	810.27557	37.59892	-637.19690	-667.65729	-11.54541	502.02612	773.72913	-13.30850	511.60831	26.39455	1347.64832	-903.44910	
2859	28.580	-760.39612	36.56421	-631.86261	809.67279	37.72278	-636.98627	-669.10181	-11.34867	502.22043	773.13135	-13.47518	511.71289	25.79778	1347.88513	-902.97406	
2860	28.590	-760.76569	36.60429	-631.94568	809.13287	37.68722	-636.96136	-669.68042	-11.43404	502.37436	772.69244	-13.52140	511.84601	25.47276	1348.04504	-902.22168	
2861	28.600	-761.19043	36.65779	-632.08630	808.64368	37.80522	-637.01263	-670.09076	-11.52007	502.32697	772.38489	-13.55913	511.84778	24.97826	1348.20764	-901.40533	
2862	28.610	-761.79993	36.92242	-632.15411	807.92499	37.98082	-637.05829	-670.63293	-11.75124	502.33151	771.82849	-13.61824	511.87881	24.51811	1348.27856	-900.22693	
2863	28.620	-762.82037	37.24895	-632.04474	807.29443	38.06681	-637.07813	-671.16522	-11.70789	502.37320	770.86664	-13.55077	511.99573	23.48933	1348.38049	-898.95264	
2864	28.630	-763.24365	37.29680	-631.67737	806.63666	38.24424	-636.99097	-671.61481	-11.75220	502.41519	770.57788	-13.49180	511.99649	23.16667	1348.51868	-898.27948	
2865	28.640	-763.94794	36.99750	-631.74072	806.10004	38.28293	-636.88483	-671.91956	-12.40273	502.37375	770.09802	-13.62742	511.89874	22.56354	1348.63293	-897.76837	
2866	28.650	-764.44733	37.04554	-631.76685	805.58606	38.31568	-636.89764	-672.52930	-12.37906	502.24210	769.28088	-13.74758	511.78870	21.84522	1348.73828	-897.56049	
2867	28.660	-765.03284	37.20940	-631.90454	804.95050	38.44174	-636.95026	-673.16382	-12.29160	502.05252	768.59167	-13.75253	511.89023	21.12042	1348.86438	-897.78021	
2868	28.670	-766.11334	37.51447	-631.83325	804.21478	38.62434	-636.72607	-674.12970	-12.29233	502.39328	767.90771	-13.75366	512.02722	20.34606	1348.95215	-898.24554	
2869	28.680	-766.70367	37.68342	-631.88464	803.45929	38.75899	-636.69116	-674.75549	-12.46682	502.42361	767.50214	-13.92741	511.99783	19.60407	1349.32324	-899.06793	
2870	28.690	-767.23962	37.70068	-631.74615	802.93164	38.87620	-636.70404	-675.07733	-12.42320	502.34988	766.85101	-13.96235	512.05383	19.09279	1349.47144	-899.48932	
2871	28.700	-767.69189	37.71201	-631.51355	802.38190	38.92718	-636.72412	-676.19019	-12.59039	502.40100	766.18085	-13.83282	512.14105	18.53205	1349.52539	-899.60590	
2872	28.710	-768.27911	37.78177	-631.63916	801.61938	38.77778	-636.67944	-676.67389	-12.61797	502.53198	765.65686	-13.75485	512.10925	18.00405	1349.47107	-899.46161	
